<?xml version="1.0" encoding="utf-8"?>
<!-- Generator: Adobe Illustrator 16.0.0, SVG Export Plug-In . SVG Version: 6.00 Build 0)  -->
<!DOCTYPE svg PUBLIC "-//W3C//DTD SVG 1.1//EN" "http://www.w3.org/Graphics/SVG/1.1/DTD/svg11.dtd">
<svg version="1.1" id="Layer_1" xmlns="http://www.w3.org/2000/svg" xmlns:xlink="http://www.w3.org/1999/xlink" x="0px" y="0px"
	 width="32px" height="32px" viewBox="0 0 32 32" enable-background="new 0 0 32 32" xml:space="preserve">
<g>
	<g>
		<g>
			<path fill="#FFFFFF" d="M17.5,11.9l-0.7-0.7c-1.6-1.6-4.1-1.6-5.7,0c-1.6,1.6-1.6,4.1,0,5.7l1.4,1.4c1.6,1.6,4.1,1.6,5.7,0
				l-1.4-1.4c-0.8,0.8-2,0.8-2.8,0l-1.4-1.4c-0.8-0.8-0.8-2,0-2.8c0.8-0.8,2-0.8,2.8,0l0.7,0.7l0,0L17.5,11.9z"/>
		</g>
	</g>
	<g>
		<g>
			<path fill="#FFFFFF" d="M15.4,21.1l0.7,0.7c1.6,1.6,4.1,1.6,5.7,0c1.6-1.6,1.6-4,0-5.6l-1.4-1.4c-1.6-1.6-4.1-1.6-5.7,0l1.4,1.4
				c0.8-0.8,2-0.8,2.8,0l1.4,1.4c0.8,0.8,0.8,2,0,2.8c-0.8,0.8-2,0.8-2.8,0l-0.7-0.7l0,0L15.4,21.1z"/>
		</g>
	</g>
</g>
</svg>
