<?xml version="1.0" encoding="utf-8"?>
<!DOCTYPE svg PUBLIC "-//W3C//DTD SVG 1.1//EN" "http://www.w3.org/Graphics/SVG/1.1/DTD/svg11.dtd">
<svg version="1.1" id="Layer_1" xmlns="http://www.w3.org/2000/svg" xmlns:xlink="http://www.w3.org/1999/xlink" x="0" y="0"
	 width="32" height="128" viewBox="0 0 32 128" enable-background="new 0 0 32 128" xml:space="preserve">
	<circle fill="#EDEDED" cx="16" cy="16" r="9.666"/>
	<path fill="#CCC" d="M16,7.333c4.778,0,8.666,3.888,8.666,8.667S20.778,24.667,16,24.667c-4.779,0-8.667-3.888-8.667-8.667
		S11.221,7.333,16,7.333 M16,6.333c-5.339,0-9.667,4.328-9.667,9.667s4.328,9.667,9.667,9.667s9.666-4.328,9.666-9.667
		S21.339,6.333,16,6.333L16,6.333z"/>
	<circle fill="#EDEDED" cx="16" cy="80" r="9.666"/>
	<path fill="#CCC" d="M16,71.334c4.778,0,8.666,3.887,8.666,8.666S20.778,88.666,16,88.666c-4.779,0-8.667-3.887-8.667-8.666
		S11.221,71.334,16,71.334 M16,70.334c-5.339,0-9.667,4.327-9.667,9.666s4.328,9.666,9.667,9.666s9.666-4.327,9.666-9.666
		S21.339,70.334,16,70.334L16,70.334z"/>
	<circle fill="#EDEDED" cx="16" cy="48" r="9.666"/>
	<path fill="#007F7F" d="M16,39.333c4.778,0,8.666,3.888,8.666,8.667S20.778,56.667,16,56.667c-4.779,0-8.667-3.888-8.667-8.667
		S11.221,39.333,16,39.333 M16,38.333c-5.339,0-9.667,4.328-9.667,9.667s4.328,9.667,9.667,9.667s9.666-4.328,9.666-9.667
		S21.339,38.333,16,38.333L16,38.333z"/>
	<circle fill="#EDEDED" cx="16" cy="112" r="9.666"/>
	<path fill="#007F7F" d="M16,103.334c4.778,0,8.666,3.887,8.666,8.666s-3.888,8.666-8.666,8.666c-4.779,0-8.667-3.887-8.667-8.666
		S11.221,103.334,16,103.334 M16,102.334c-5.339,0-9.667,4.327-9.667,9.666s4.328,9.666,9.667,9.666s9.666-4.327,9.666-9.666
		S21.339,102.334,16,102.334L16,102.334z"/>
	<circle fill="#EDEDED" cx="16" cy="80" r="4.5"/>
	<path fill="#007F7F" d="M16,75.5c-2.486,0-4.501,2.014-4.501,4.5s2.015,4.5,4.501,4.5c2.485,0,4.5-2.014,4.5-4.5
		S18.485,75.5,16,75.5L16,75.5z"/>
	<circle fill="#EDEDED" cx="16" cy="112" r="4.5"/>
	<path fill="#007F7F" d="M16,107.5c-2.486,0-4.501,2.014-4.501,4.5s2.015,4.5,4.501,4.5c2.485,0,4.5-2.014,4.5-4.5
		S18.485,107.5,16,107.5L16,107.5z"/>
</svg>
