<?xml version="1.0" encoding="iso-8859-1"?>
<!-- Generator: Adobe Illustrator 18.0.0, SVG Export Plug-In . SVG Version: 6.00 Build 0)  -->
<!DOCTYPE svg PUBLIC "-//W3C//DTD SVG 1.1//EN" "http://www.w3.org/Graphics/SVG/1.1/DTD/svg11.dtd">
<svg version="1.1" id="Layer_1" xmlns="http://www.w3.org/2000/svg" xmlns:xlink="http://www.w3.org/1999/xlink" x="0px" y="0px"
	 viewBox="0 0 1008 800" style="enable-background:new 0 0 1008 800;" xml:space="preserve">
<g>
	<path style="fill:#686969;" d="M305,66.2c0,0,29.6-1.5,18.8,21.7c0,0-21.2,21.7-36.5,10.9c0,0-18.8-12.3-4.4-25.7
		C282.7,73.6,293.1,64.7,305,66.2z"/>
	<g>
		<path style="fill:#7E8483;" d="M624,605.9l-34.1,15.3c0,0-4.9,2.5-9.9-12.3c0,0-1.5-2.5,3.5-5.4l25.7-21.7c0,0,1.5-1,1,1
			c0,0-1,4,2.5,12.8c0,0,4.4,7.9,9.9,9.4C623,604.4,624.5,604,624,605.9z"/>
		<path style="fill:#7E8483;" d="M658,630.1l-42.5,17.8c0,0-4.4,3-11.4-10.9c0,0-2.5-3,2-6.9l23.7-18.3c0,0,1.5-1,3.5,1.5
			c0,0,0,0,9.4,7.4c0,0,6.9,5.9,12.3,7.4C655.1,627.7,658.5,628.1,658,630.1z"/>
		<g>
			<path style="fill:#899392;" d="M789.4,554.6c0,0,7.4-6.4-7.9-34.1c0,0-21.2-43.5-27.2-40c0,0,1-3-33.1,16.8c0,0-8.4,4-32.1,15.3
				l-49.4,20.2l-28.1,37.5c0,0-10.4,15.3,4.9,28.6c0,0,26.2,34.1,51.9,29.6C668.4,629.1,759.8,580.2,789.4,554.6z"/>
		</g>
		<g>
			<line style="fill:none;stroke:#AFBCBB;stroke-miterlimit:10;" x1="749.9" y1="531.4" x2="663.5" y2="584.2"/>
			<line style="fill:none;stroke:#AFBCBB;stroke-miterlimit:10;" x1="745.4" y1="552.1" x2="682.7" y2="590.1"/>
		</g>
	</g>
	<g>
		<path style="fill:#686969;" d="M269.4,103.7l4.9,37c0,0,0.5,5.4,15.8,2c0,0,3,0,3-5.9l4.9-33.6c0,0,0-2-1.5-0.5c0,0-3,3-12.3,4.4
			c0,0-8.9,0.5-13.3-3.5C271.4,103.7,270.9,102.2,269.4,103.7z"/>
		<path style="fill:#686969;" d="M240.3,79l-5.9,45.4c0,0-2,4.9,13.8,8.4c0,0,3.5,2,5.9-3.5l11.4-27.7c0,0,0.5-1.5-2-3
			c0,0,0,0-9.9-6.9c0,0-7.9-5.4-10.4-9.9C243.2,81.5,241.7,78,240.3,79z"/>
		<path style="fill:#7A8282;" d="M260,26.2c0,0,5.4-7.9,35.1,3l36,41l-33.6,32.6c0,0-13.8,12.3-29.1-1c0,0-37-21.7-36-47.4
			C231.9,54.3,237.8,34.1,260,26.2z"/>
	</g>
</g>
</svg>
