<?xml version="1.0" encoding="iso-8859-1"?>
<!-- Generator: Adobe Illustrator 18.0.0, SVG Export Plug-In . SVG Version: 6.00 Build 0)  -->
<!DOCTYPE svg PUBLIC "-//W3C//DTD SVG 1.1//EN" "http://www.w3.org/Graphics/SVG/1.1/DTD/svg11.dtd">
<svg version="1.1" id="Layer_1" xmlns="http://www.w3.org/2000/svg" xmlns:xlink="http://www.w3.org/1999/xlink" x="0px" y="0px"
	 viewBox="0 0 1008 800" style="enable-background:new 0 0 1008 800;" xml:space="preserve">
<g>
	<g>
		<g>
			<path style="fill:#686969;" d="M895.1,45.9l-30.1,2l21.7,133.8c0,0,4,2.5,14.8-3C901.5,178.8,900,56.8,895.1,45.9z"/>
			<g>
				<path style="fill:#ADADAD;" d="M909.9,158.5c0,0,0.5-3.5-2.5-3l-36.5,3.5l1,9.9v2l37.5-5.9c0,0,0.5,0,0.5-3
					C909.9,160,909.9,158.5,909.9,158.5z"/>
				<path style="fill:#ADADAD;" d="M907.9,134.3c0,0,0.5-3.5-2.5-3l-36.5,3.5l1,9.9v2l37.5-5.9c0,0,0.5,0,0.5-3
					C907.9,135.3,907.9,134.3,907.9,134.3z"/>
				<path style="fill:#ADADAD;" d="M905.9,110.1c0,0,0.5-3.5-2.5-3l-36.5,3.5l1,9.9v2l37.5-5.9c0,0,0.5,0,0.5-3
					C905.9,111.1,905.9,110.1,905.9,110.1z"/>
				<path style="fill:#ADADAD;" d="M904,85.9c0,0,0.5-3.5-2.5-3L865,86.4l1,9.9v2l37.5-5.9c0,0,0.5,0,0.5-3
					C904,86.9,904,85.9,904,85.9z"/>
				<path style="fill:#ADADAD;" d="M902,61.7c0,0,0.5-3.5-2.5-3L863,62.2l1,9.9v2l37.5-5.9c0,0,0.5,0,0.5-3
					C902,62.7,902,61.7,902,61.7z"/>
			</g>
		</g>
		<path style="fill:#686969;" d="M945.9,321l-43-15.3l12.3,102.2c0,0,2,4.9,30.6-1C945.9,406.4,952.4,334.3,945.9,321z"/>
		<path style="fill:#686969;" d="M466.4,321l43.5-14.8l-12.8,100.2c0,0-2,6.4-31.1,0C466.4,406.4,460.5,334.3,466.4,321z"/>
		<path style="fill:#7A8282;" d="M707.4,0.5l131.4,3c25.2,2,31.1,20.2,31.1,20.2l42.5,359c5.4,38.5-4.4,37-4.4,37L818.5,443
			l-20.2,51.4c-42,27.7-90.4,25.2-90.4,25.2h-3c0,0-49.9,2.5-91.9-25.2L592.9,443l-82-21.2l-7.9-2c0,0-9.9,1-4.4-37l44.4-359
			c0,0,5.9-18.8,31.1-20.2l131.4-3C705.4,0.5,707.4,0.5,707.4,0.5z"/>
		<g>
			<path style="fill:#686969;" d="M518.3,45.9l30.1,2l-21.7,133.8c0,0-4,2.5-14.8-3C511.4,178.8,512.9,56.8,518.3,45.9z"/>
			<g>
				<path style="fill:#ADADAD;" d="M503,158.5c0,0-0.5-3.5,2.5-3L542,159l-1,9.9v2l-37.5-5.9c0,0-0.5,0-0.5-3
					C503.5,160,503,158.5,503,158.5z"/>
				<path style="fill:#ADADAD;" d="M505,134.3c0,0-0.5-3.5,2.5-3l36.5,3.5l-1,9.9v2l-37.5-5.9c0,0-0.5,0-0.5-3
					C505,135.3,505,134.3,505,134.3z"/>
				<path style="fill:#ADADAD;" d="M506.9,110.1c0,0-0.5-3.5,2.5-3l36.5,3.5l-1,9.9v2l-37.5-5.9c0,0-0.5,0-0.5-3
					C506.9,111.1,506.9,110.1,506.9,110.1z"/>
				<path style="fill:#ADADAD;" d="M508.9,85.9c0,0-0.5-3.5,2.5-3l36.5,3.5l-1,9.9v2l-37.5-5.9c0,0-0.5,0-0.5-3
					C508.9,86.9,508.9,85.9,508.9,85.9z"/>
				<path style="fill:#ADADAD;" d="M510.9,61.7c0,0-0.5-3.5,2.5-3l36.5,3.5l-1,9.9v2l-37.5-5.9c0,0-0.5,0-0.5-3
					C510.9,62.7,510.9,61.7,510.9,61.7z"/>
			</g>
		</g>
		<path style="fill:#ADADAD;stroke:#ADADAD;stroke-miterlimit:10;" d="M752.4,4.9c-1,79,4.4,220.2,4.4,220.2s130.9-0.5,138.3,34.1
			L870.9,27.7c0,0,1-23.2-59.8-23.2L752.4,4.9z"/>
		<path style="fill:#ADADAD;stroke:#ADADAD;stroke-miterlimit:10;" d="M660.5,4.9c1,79-4.4,220.2-4.4,220.2s-130.9-0.5-138.3,34.1
			L542,27.7c0,0-1-23.2,59.8-23.2L660.5,4.9z"/>
		<g>
			<path style="fill:#7A8282;" d="M547.9,465.7c0,0,18.3-4,35.6,11.9l-14.3,105.2c0,0-4,8.4-24.7,4.4c0,0-22.2-1.5-19.3-18.8
				c3-17.3,17.3-95.8,17.3-95.8S544.5,467.2,547.9,465.7z"/>
			<path style="fill:#A5A5A5;stroke:#FFFFFF;stroke-width:0.25;stroke-miterlimit:10;" d="M523.7,576.8c0,0-11.4-2.5-14.3,6.9
				c0,0-4.4,18.3-2.5,25.2c0,0,2,3.5,8.4,3.5l58.3,5.4c0,0,7.9-1,8.4-9.4c0,0,2-16.3,1-18.8c0,0-1-7.9-9.9-8.9L523.7,576.8z"/>
		</g>
		<g>
			<path style="fill:#686969;stroke:#FFFFFF;stroke-width:0.25;stroke-miterlimit:10;" d="M411.6,787.7c-6.4-9.4,26.7-40,26.7-40
				l148.6,7.9c0,0,6.9,14.8,0,30.6C578,805.4,419.5,799.5,411.6,787.7z"/>
			<path style="fill:#7A8282;" d="M581.5,631.6c0,0,0,23.7-4,56.8c-4,32.6,16.8,54.8,12.3,83c0,0,0.5,16.8-53.8,18.8
				c0,0-135.3,4-122.5-15.3c0,0,1.5-5.9,57.3-70.1c9.9-11.4,24.7-74.6,24.7-74.6s4.4-20.7,29.6-18.3l38.5,2.5
				C563.2,614.3,584.5,614.3,581.5,631.6z"/>
			<path style="fill:#ADADAD;" d="M576.6,704.7c-1.5-16.3-89.4-25.7-98.3-10.9c-7.4,11.9-11.9,15.8-16.8,21.2
				c-23.7,27.2,126.9,31.6,120.5,10.9C576.1,708.6,576.6,705.7,576.6,704.7z"/>
		</g>
		<path style="fill:#686969;stroke:#FFFFFF;stroke-width:0.25;stroke-miterlimit:10;" d="M516.3,460.7l-5.9-38l84,20.2l17.3,48.9
			l-18.8-2C592.9,490.4,517.3,467.7,516.3,460.7z"/>
		<g>
			<path style="fill:#686969;stroke:#FFFFFF;stroke-width:0.25;stroke-miterlimit:10;" d="M1007.2,788.6
				c6.4-9.4-26.7-39.5-26.7-39.5L831.9,757c0,0-6.9,14.8,0,30.6C840.3,806.4,998.8,800.5,1007.2,788.6z"/>
			<g>
				<path style="fill:#7A8282;" d="M850.6,471.1c0,0-18.8-2-34.1,15.8l26.2,102.7c0,0,4.9,7.9,25.2,1.5c0,0,21.7-4.4,16.8-20.7
					c-4.9-16.8-28.6-92.8-28.6-92.8S854.1,472.1,850.6,471.1z"/>
				<path style="fill:#A5A5A5;stroke:#FFFFFF;stroke-width:0.25;stroke-miterlimit:10;" d="M889.6,577.3c0,0,11.4-4,14.8,5.4
					c0,0,5.9,17.8,4.9,24.7c0,0-1.5,3.5-7.9,4.4l-57.3,11.9c0,0-7.9,0-9.4-8.4c0,0-3.5-15.8-3-18.3c0,0,0-7.9,8.9-9.9L889.6,577.3z"
					/>
				<path style="fill:#7A8282;" d="M836.8,634.1c0,0,0,23.7,4,56.3c4,32.6-16.8,54.3-12.3,82.5c0,0-0.5,16.8,53.8,18.8
					c0,0,135.3,4,122.5-15.3c0,0-1.5-5.9-57.3-69.6c-9.9-11.4-24.7-74.6-24.7-74.6s-4.4-20.7-29.6-17.8l-38.5,2.5
					C855.1,616.3,833.8,616.3,836.8,634.1z"/>
				<path style="fill:#ADADAD;" d="M841.7,708.6c1.5-16.3,90.9-25.7,99.8-10.9c7.4,11.9,12.3,15.8,17.3,21.2
					c24.2,27.2-128.9,31.6-122.5,10.9C842.2,712.6,841.7,709.6,841.7,708.6z"/>
			</g>
		</g>
		<path style="fill:#686969;stroke:#FFFFFF;stroke-width:0.25;stroke-miterlimit:10;" d="M896.6,460.7l5.9-38l-84,20.2l-17.8,48.9
			l19.3-2C820.5,490.4,895.6,467.7,896.6,460.7z"/>
		<g>
			
				<ellipse style="fill:#686969;stroke:#FFFFFF;stroke-width:0.25;stroke-miterlimit:10;" cx="708.4" cy="328.4" rx="54.8" ry="53.3"/>
			<ellipse style="fill:#007F7F;" cx="708.4" cy="328.4" rx="42.5" ry="41"/>
		</g>
	</g>
	<path style="opacity:0.1;fill:#E5E4E3;enable-background:new    ;" d="M707.4,0.5l131.4,3c25.2,2,31.1,20.2,31.1,20.2l42.5,359
		c5.4,38.5-4.4,37-4.4,37L818.5,443l-20.2,51.4c-42,27.7-90.4,25.2-90.4,25.2h-3l0.5-519H707.4z"/>
</g>
<g>
	<path style="fill:#7E8483;" d="M949.9,319.5l-43-15.3l12.3,102.2c0,0,2,4.9,30.6-1C949.9,404.9,956.3,332.8,949.9,319.5z"/>
	<path style="fill:#686969;" d="M469.9,319.5l43.5-14.8L501,404.9c0,0-2,6.4-31.1,0C469.9,404.9,464,332.8,469.9,319.5z"/>
	<path style="fill:#686969;" d="M305,66.2c0,0,29.6-1.5,18.8,21.7c0,0-21.2,21.7-36.5,10.9c0,0-18.8-12.3-4.4-25.7
		C282.7,73.6,293.1,64.7,305,66.2z"/>
	<path style="fill:#868483;" d="M463,380.7c0,0-161.5-260.7-170.9-282c0,0-2.5-4,4-5.4c0,0,23.2-6.4,27.2-14.8c0,0,1.5-4.4,7.9,5.9
		l148.6,251.4C479.8,336.3,474.8,395.1,463,380.7z"/>
	<g>
		<path style="fill:#868483;" d="M551.4,464.2c0,0,18.3-4,35.6,11.9l-13.8,105.7c0,0-4,8.4-24.7,4.4c0,0-22.2-1.5-19.3-18.8
			s17.8-95.8,17.8-95.8S548.4,465.7,551.4,464.2z"/>
		<path style="fill:#A5A5A5;stroke:#FFFFFF;stroke-width:0.25;stroke-miterlimit:10;" d="M527.2,575.3c0,0-11.4-2.5-14.3,6.9
			c0,0-4.4,18.3-2.5,25.2c0,0,2,3.5,8.4,3.5l58.3,5.4c0,0,7.9-1,8.4-9.4c0,0,2-16.3,1-18.8c0,0-1-7.9-9.9-8.9L527.2,575.3z"/>
	</g>
	<path style="fill:#686969;stroke:#FFFFFF;stroke-width:0.25;stroke-miterlimit:10;" d="M519.8,459.3l-5.9-38l84,20.2l17.3,48.9
		l-18.8-1.5C596.3,488.9,520.8,466.2,519.8,459.3z"/>
	<path style="fill:#686969;" d="M306.9,93.8c0,0,14.3,7.4,18.3,26.2c0,0,12.3,9.4,14.3-27.7c0,0-3-12.3-11.4-19.3L306.9,93.8z"/>
	<g>
		<path style="fill:#7E8483;" d="M619.5,559.5c0,0-9.4-13.3-28.6-14.8c0,0-10.9-10.9,25.7-17.8c0,0,12.8,1.5,20.7,8.9L619.5,559.5z"
			/>
		<path style="fill:#7E8483;" d="M766.2,497.3c0,0-9.9-28.1,15.8-23.7c0,0,27.2,14.3,20.7,31.6c0,0-6.4,21.7-23.2,11.9
			C779,517,768.2,509.1,766.2,497.3z"/>
		<path style="fill:#ADADAD;stroke:#ADADAD;stroke-miterlimit:10;" d="M952.4,376.8c0,0-118.5,110.6-138.8,122c0,0-3.5,3-5.9-3
			c0,0-9.4-22.2-17.8-25.2c0,0-4.4-1,5.4-8.4l153.6-127.4C948.9,335.3,964.7,363.5,952.4,376.8z"/>
	</g>
</g>
</svg>
